# xmcd
#
# Track frame offsets:
#	150
#	5507
#	17257
#	31942
#	42945
#	64189
#	85684
#	100106
#	110829
#	127189
#	146795
#	156137
#	167307
#	181392
#	199090
#	213875
#	231596
#	246059
#	256966
#	267709
#	281567
#	295497
#	310597
#	322431
#
# Disc length: 4400 seconds
#
# Revision: 1
# Processed by: cddbd v1.5.1PL2 Copyright (c) Steve Scherf et al.
# Submitted via: EasyCDDAExtractor 6.5.0.1
#
DISCID=62112e18
DTITLE=Czerwone Gitary
DYEAR=1900
DGENRE=
TTITLE0=Powitanie
TTITLE1=Przed pierwszym balem
TTITLE2=Historia jednej znajomosci
TTITLE3=Takie ladne oczy
TTITLE4=Epitafium dla Krzyska
TTITLE5=Latawce z moich stron
TTITLE6=Trzecia milosc - zagle
TTITLE7=Kwiaty we wlosach
TTITLE8=Wrócmy na jeziora - Moda i mkilosc
TTITLE9=Jesien idzie przez Park
TTITLE10=Nie zadzieraj nosa
TTITLE11=Powiedz stary, gdzies Ty byl
TTITLE12=Slowo jedyne - Ty
TTITLE13=Gdy kiedys znów zawolam Cie
TTITLE14=Strzemiennego
TTITLE15=Plona góry, plona lasy
TTITLE16=Ciagle pada
TTITLE17=Dozwolone od lat 18-tu
TTITLE18=Tak bardzo sie staralem
TTITLE19=Nikt na swiecie nie wie
TTITLE20=Niebo z moich stron
TTITLE21=Matura
TTITLE22=Pluszowe niedzwiadki
TTITLE23=Final
EXTD=
EXTT0=
EXTT1=
EXTT2=
EXTT3=
EXTT4=
EXTT5=
EXTT6=
EXTT7=
EXTT8=
EXTT9=
EXTT10=
EXTT11=
EXTT12=
EXTT13=
EXTT14=
EXTT15=
EXTT16=
EXTT17=
EXTT18=
EXTT19=
EXTT20=
EXTT21=
EXTT22=
EXTT23=
PLAYORDER=
